HIERARCHY
ROOT newVegas:Hips
{
	OFFSET 0.000000 96.479958 0.000000
	CHANNELS 6 Xposition Yposition Zposition Xrotation Yrotation Zrotation
	JOINT newVegas:Pelvis
	{
		OFFSET 0.000000 0.000000 0.000000
		CHANNELS 3 Xrotation Yrotation Zrotation
		JOINT newVegas:LeftUpLeg
		{
			OFFSET 18.735201 -5.666702 -4.541200
			CHANNELS 3 Xrotation Yrotation Zrotation
			JOINT newVegas:LeftLeg
			{
				OFFSET -0.021200 -31.938179 0.493100
				CHANNELS 3 Xrotation Yrotation Zrotation
				JOINT newVegas:LeftFoot
				{
					OFFSET 0.021200 -31.938179 -4.336299
					CHANNELS 3 Xrotation Yrotation Zrotation
					JOINT newVegas:LeftToeBase
					{
						OFFSET 0.943001 -26.722000 15.023500
						CHANNELS 3 Xrotation Yrotation Zrotation
						End Site
						{
							OFFSET 0.000000 30.670183 0.000000
						}
					}
				}
				JOINT newVegas:Left_PantLeg
				{
					OFFSET 0.663870 -9.044666 -1.108900
					CHANNELS 3 Xrotation Yrotation Zrotation
					End Site
					{
						OFFSET 1.415995 20.635357 0.000000
					}
				}
			}
		}
		JOINT newVegas:RightUpLeg
		{
			OFFSET -18.735201 -5.666702 -4.541200
			CHANNELS 3 Xrotation Yrotation Zrotation
			JOINT newVegas:RightLeg
			{
				OFFSET 0.018946 -31.938133 0.493100
				CHANNELS 3 Xrotation Yrotation Zrotation
				JOINT newVegas:RightFoot
				{
					OFFSET -0.018946 -31.938126 -4.336299
					CHANNELS 3 Xrotation Yrotation Zrotation
					JOINT newVegas:RightToeBase
					{
						OFFSET -0.943001 -26.722004 15.023500
						CHANNELS 3 Xrotation Yrotation Zrotation
						End Site
						{
							OFFSET 0.000000 30.670187 0.000000
						}
					}
				}
				JOINT newVegas:Right_PantLeg
				{
					OFFSET -0.661674 -9.044716 -1.108900
					CHANNELS 3 Xrotation Yrotation Zrotation
					End Site
					{
						OFFSET -1.415958 20.635269 0.000000
					}
				}
			}
		}
	}
	JOINT newVegas:Spine
	{
		OFFSET 0.000000 10.199997 -0.299500
		CHANNELS 3 Xrotation Yrotation Zrotation
		JOINT newVegas:Spine1
		{
			OFFSET 0.000000 11.900002 -1.516600
			CHANNELS 3 Xrotation Yrotation Zrotation
			JOINT newVegas:Spine2
			{
				OFFSET 0.000000 13.600006 -2.842500
				CHANNELS 3 Xrotation Yrotation Zrotation
				JOINT newVegas:Neck
				{
					OFFSET 0.000000 9.624100 -2.890100
					CHANNELS 3 Xrotation Yrotation Zrotation
					JOINT newVegas:Head
					{
						OFFSET 0.000000 14.068802 -1.351900
						CHANNELS 3 Xrotation Yrotation Zrotation
						JOINT newVegas:Hair_Back
						{
							OFFSET 0.000000 3.231903 -17.524799
							CHANNELS 3 Xrotation Yrotation Zrotation
							End Site
							{
								OFFSET 0.000000 19.849884 0.000000
							}
						}
						JOINT newVegas:Hair_Front
						{
							OFFSET 0.000000 31.260406 4.573800
							CHANNELS 3 Xrotation Yrotation Zrotation
							JOINT newVegas:Hair_Front1
							{
								OFFSET 0.000000 2.284103 11.993300
								CHANNELS 3 Xrotation Yrotation Zrotation
								JOINT newVegas:Hair_Front2
								{
									OFFSET 0.000000 2.284103 11.993300
									CHANNELS 3 Xrotation Yrotation Zrotation
									End Site
									{
										OFFSET 0.000000 12.208862 0.000000
									}
								}
							}
						}
						JOINT newVegas:Jowel
						{
							OFFSET 0.000000 -7.458206 6.864100
							CHANNELS 3 Xrotation Yrotation Zrotation
							End Site
							{
								OFFSET 0.000000 19.849884 0.000000
							}
						}
					}
				}
				JOINT newVegas:LeftShoulder
				{
					OFFSET 15.263000 10.923401 -0.547700
					CHANNELS 3 Xrotation Yrotation Zrotation
					JOINT newVegas:LeftArm
					{
						OFFSET 25.438599 -2.830597 -13.032500
						CHANNELS 3 Xrotation Yrotation Zrotation
						JOINT newVegas:LeftForeArm
						{
							OFFSET 29.960503 0.000000 0.000000
							CHANNELS 3 Xrotation Yrotation Zrotation
							JOINT newVegas:LeftHand
							{
								OFFSET 27.849251 0.000000 0.000000
								CHANNELS 3 Xrotation Yrotation Zrotation
								JOINT newVegas:LeftHandThumb1
								{
									OFFSET 4.487587 -3.305161 6.305391
									CHANNELS 3 Xrotation Yrotation Zrotation
									JOINT newVegas:LeftHandThumb2
									{
										OFFSET 5.480453 -3.164139 3.164143
										CHANNELS 3 Xrotation Yrotation Zrotation
										JOINT newVegas:LeftHandThumb3
										{
											OFFSET 5.159721 -2.978973 2.978967
											CHANNELS 3 Xrotation Yrotation Zrotation
											End Site
											{
												OFFSET 2.494507 5.926697 1.738678
											}
										}
									}
								}
								JOINT newVegas:LeftHandIndex1
								{
									OFFSET 18.578728 -0.527832 5.208049
									CHANNELS 3 Xrotation Yrotation Zrotation
									JOINT newVegas:LeftHandIndex2
									{
										OFFSET 3.192009 0.000000 0.000000
										CHANNELS 3 Xrotation Yrotation Zrotation
										JOINT newVegas:LeftHandIndex3
										{
											OFFSET 3.835129 0.000000 0.000000
											CHANNELS 3 Xrotation Yrotation Zrotation
											End Site
											{
												OFFSET -0.034599 3.816971 0.371180
											}
										}
									}
								}
								JOINT newVegas:LeftHandMiddle1
								{
									OFFSET 18.476105 0.000000 0.000000
									CHANNELS 3 Xrotation Yrotation Zrotation
									JOINT newVegas:LeftHandMiddle2
									{
										OFFSET 3.324875 0.000000 0.000000
										CHANNELS 3 Xrotation Yrotation Zrotation
										JOINT newVegas:LeftHandMiddle3
										{
											OFFSET 4.596550 0.000000 0.000000
											CHANNELS 3 Xrotation Yrotation Zrotation
											End Site
											{
												OFFSET 0.057701 4.578827 0.399218
											}
										}
									}
								}
								JOINT newVegas:LeftHandRing1
								{
									OFFSET 17.732719 0.121887 -4.201567
									CHANNELS 3 Xrotation Yrotation Zrotation
									JOINT newVegas:LeftHandRing2
									{
										OFFSET 2.733170 0.000000 0.000000
										CHANNELS 3 Xrotation Yrotation Zrotation
										JOINT newVegas:LeftHandRing3
										{
											OFFSET 3.178268 0.000000 0.000000
											CHANNELS 3 Xrotation Yrotation Zrotation
											End Site
											{
												OFFSET 0.119102 3.170624 0.185394
											}
										}
									}
								}
								JOINT newVegas:LeftHandPinky1
								{
									OFFSET 15.989624 -0.606689 -7.535461
									CHANNELS 3 Xrotation Yrotation Zrotation
									JOINT newVegas:LeftHandPinky2
									{
										OFFSET 2.538986 0.000000 0.000000
										CHANNELS 3 Xrotation Yrotation Zrotation
										JOINT newVegas:LeftHandPinky3
										{
											OFFSET 2.593102 0.000000 0.000000
											CHANNELS 3 Xrotation Yrotation Zrotation
											End Site
											{
												OFFSET -0.150902 2.584198 0.152708
											}
										}
									}
								}
							}
							JOINT newVegas:Left_Sleeve
							{
								OFFSET 0.267448 -0.649796 0.577675
								CHANNELS 3 Xrotation Yrotation Zrotation
								End Site
								{
									OFFSET 0.000000 15.991241 0.000000
								}
							}
							JOINT newVegas:Left_CapeC
							{
								OFFSET 15.715958 -8.608795 -6.935905
								CHANNELS 3 Xrotation Yrotation Zrotation
								JOINT newVegas:Left_CapeC1
								{
									OFFSET 0.000000 -8.688499 0.000000
									CHANNELS 3 Xrotation Yrotation Zrotation
									End Site
									{
										OFFSET 0.000000 8.688499 0.000000
									}
								}
							}
						}
						JOINT newVegas:Left_CapeB
						{
							OFFSET 26.118385 -8.608795 -7.079235
							CHANNELS 3 Xrotation Yrotation Zrotation
							JOINT newVegas:Left_CapeB1
							{
								OFFSET 0.000000 -8.688499 0.000000
								CHANNELS 3 Xrotation Yrotation Zrotation
								End Site
								{
									OFFSET 0.000000 8.688499 0.000000
								}
							}
						}
						JOINT newVegas:Left_CapeA
						{
							OFFSET 5.115639 -8.608795 -10.395809
							CHANNELS 3 Xrotation Yrotation Zrotation
							JOINT newVegas:Left_CapeA1
							{
								OFFSET 0.000000 -8.688499 0.000000
								CHANNELS 3 Xrotation Yrotation Zrotation
								End Site
								{
									OFFSET 0.000000 8.688499 0.000000
								}
							}
						}
					}
				}
				JOINT newVegas:RightShoulder
				{
					OFFSET -15.263000 10.923401 -0.547700
					CHANNELS 3 Xrotation Yrotation Zrotation
					JOINT newVegas:RightArm
					{
						OFFSET -25.438599 -2.830597 -13.032500
						CHANNELS 3 Xrotation Yrotation Zrotation
						JOINT newVegas:RightForeArm
						{
							OFFSET -29.960503 0.000000 0.000000
							CHANNELS 3 Xrotation Yrotation Zrotation
							JOINT newVegas:RightHand
							{
								OFFSET -27.849251 0.000000 0.000000
								CHANNELS 3 Xrotation Yrotation Zrotation
								JOINT newVegas:RightHandThumb1
								{
									OFFSET -4.487587 -3.305161 6.305391
									CHANNELS 3 Xrotation Yrotation Zrotation
									JOINT newVegas:RightHandThumb2
									{
										OFFSET -5.480453 -3.164139 3.164143
										CHANNELS 3 Xrotation Yrotation Zrotation
										JOINT newVegas:RightHandThumb3
										{
											OFFSET -5.159721 -2.978973 2.978967
											CHANNELS 3 Xrotation Yrotation Zrotation
											End Site
											{
												OFFSET -2.494507 5.926697 1.738678
											}
										}
									}
								}
								JOINT newVegas:RightHandIndex1
								{
									OFFSET -18.578728 -0.527832 5.208049
									CHANNELS 3 Xrotation Yrotation Zrotation
									JOINT newVegas:RightHandIndex2
									{
										OFFSET -3.192009 0.000000 0.000000
										CHANNELS 3 Xrotation Yrotation Zrotation
										JOINT newVegas:RightHandIndex3
										{
											OFFSET -3.835129 0.000000 0.000000
											CHANNELS 3 Xrotation Yrotation Zrotation
											End Site
											{
												OFFSET 0.034599 3.816971 0.371180
											}
										}
									}
								}
								JOINT newVegas:RightHandMiddle1
								{
									OFFSET -18.476105 0.000000 0.000000
									CHANNELS 3 Xrotation Yrotation Zrotation
									JOINT newVegas:RightHandMiddle2
									{
										OFFSET -3.324875 0.000000 0.000000
										CHANNELS 3 Xrotation Yrotation Zrotation
										JOINT newVegas:RightHandMiddle3
										{
											OFFSET -4.596550 0.000000 0.000000
											CHANNELS 3 Xrotation Yrotation Zrotation
											End Site
											{
												OFFSET -0.057701 4.578827 0.399218
											}
										}
									}
								}
								JOINT newVegas:RightHandRing1
								{
									OFFSET -17.732719 0.121887 -4.201567
									CHANNELS 3 Xrotation Yrotation Zrotation
									JOINT newVegas:RightHandRing2
									{
										OFFSET -2.733170 0.000000 0.000000
										CHANNELS 3 Xrotation Yrotation Zrotation
										JOINT newVegas:RightHandRing3
										{
											OFFSET -3.178268 0.000000 0.000000
											CHANNELS 3 Xrotation Yrotation Zrotation
											End Site
											{
												OFFSET -0.119102 3.170624 0.185394
											}
										}
									}
								}
								JOINT newVegas:RightHandPinky1
								{
									OFFSET -15.989624 -0.606689 -7.535461
									CHANNELS 3 Xrotation Yrotation Zrotation
									JOINT newVegas:RightHandPinky2
									{
										OFFSET -2.538986 0.000000 0.000000
										CHANNELS 3 Xrotation Yrotation Zrotation
										JOINT newVegas:RightHandPinky3
										{
											OFFSET -2.593102 0.000000 0.000000
											CHANNELS 3 Xrotation Yrotation Zrotation
											End Site
											{
												OFFSET 0.150902 2.584198 0.152708
											}
										}
									}
								}
							}
							JOINT newVegas:Right_CapeC
							{
								OFFSET -15.715958 -8.608795 -6.935905
								CHANNELS 3 Xrotation Yrotation Zrotation
								JOINT newVegas:Right_CapeC1
								{
									OFFSET 0.000000 -8.688499 0.000000
									CHANNELS 3 Xrotation Yrotation Zrotation
									End Site
									{
										OFFSET 0.000000 8.688499 0.000000
									}
								}
							}
							JOINT newVegas:Right_Sleeve
							{
								OFFSET -0.267448 -0.649994 0.577675
								CHANNELS 3 Xrotation Yrotation Zrotation
								End Site
								{
									OFFSET 0.000000 15.991302 0.000000
								}
							}
						}
						JOINT newVegas:Right_CapeA
						{
							OFFSET -5.115540 -8.608795 -10.395824
							CHANNELS 3 Xrotation Yrotation Zrotation
							JOINT newVegas:Right_CapeA1
							{
								OFFSET 0.000000 -8.688499 0.000000
								CHANNELS 3 Xrotation Yrotation Zrotation
								End Site
								{
									OFFSET 0.000000 8.688499 0.000000
								}
							}
						}
						JOINT newVegas:Right_CapeB
						{
							OFFSET -26.118187 -8.608795 -7.079266
							CHANNELS 3 Xrotation Yrotation Zrotation
							JOINT newVegas:Right_CapeB1
							{
								OFFSET 0.000000 -8.688499 0.000000
								CHANNELS 3 Xrotation Yrotation Zrotation
								End Site
								{
									OFFSET 0.000000 8.688499 0.000000
								}
							}
						}
					}
				}
				JOINT newVegas:Left_Collar
				{
					OFFSET 18.625099 8.655502 8.828100
					CHANNELS 3 Xrotation Yrotation Zrotation
					JOINT newVegas:Left_Collar1
					{
						OFFSET 14.783401 10.540405 -1.259500
						CHANNELS 3 Xrotation Yrotation Zrotation
						End Site
						{
							OFFSET 0.000000 18.199875 0.000000
						}
					}
				}
				JOINT newVegas:Collar_Back
				{
					OFFSET 0.000000 15.630707 -20.132601
					CHANNELS 3 Xrotation Yrotation Zrotation
					End Site
					{
						OFFSET 0.000000 22.523010 0.000000
					}
				}
				JOINT newVegas:Left_Peck
				{
					OFFSET 17.239599 -5.132599 25.482599
					CHANNELS 3 Xrotation Yrotation Zrotation
					End Site
					{
						OFFSET 0.000000 22.523010 0.000000
					}
				}
				JOINT newVegas:Right_Peck
				{
					OFFSET -17.239599 -5.132202 25.482599
					CHANNELS 3 Xrotation Yrotation Zrotation
					End Site
					{
						OFFSET 0.000000 22.523010 0.000000
					}
				}
				JOINT newVegas:Right_Collar
				{
					OFFSET -18.625099 8.655792 8.828100
					CHANNELS 3 Xrotation Yrotation Zrotation
					JOINT newVegas:Right_Collar1
					{
						OFFSET -14.783401 10.539993 -1.259500
						CHANNELS 3 Xrotation Yrotation Zrotation
						End Site
						{
							OFFSET 0.000000 18.199631 0.000000
						}
					}
				}
			}
		}
		JOINT newVegas:Belly
		{
			OFFSET 0.000000 -6.540398 9.014299
			CHANNELS 3 Xrotation Yrotation Zrotation
			End Site
			{
				OFFSET 0.000000 11.566666 0.000000
			}
		}
	}
	JOINT newVegas:ElvisFacialAnim_Joint
	{
		OFFSET 1.000000 -95.330101 -8.825800
		CHANNELS 3 Xrotation Yrotation Zrotation
		End Site
		{
			OFFSET 0.000000 35.315800 0.000000
		}
	}
}
MOTION
Frames: 4
Frame Time: 0.033333
1.434061 126.709328 2.122252 -13.972041 -6.390263 -1.649709 -0.000000 -0.000000 -0.000000 -4.041603 -4.702629 10.242489 20.525927 9.459149 -4.720093 41.494106 0.588713 -11.083569 0.000001 -0.000000 0.000000 0.000000 -0.000000 -0.000000 -80.621763 -0.810348 0.209597 96.354729 -2.791666 3.657389 11.437525 0.265496 6.061289 0.000000 0.000001 -0.000001 -0.000000 -0.000000 -0.000001 33.888445 -8.659733 2.090343 -8.505947 -1.694518 0.972088 -8.461855 -1.692595 1.272600 5.659551 1.400696 -1.821279 5.659547 1.400697 -1.821295 0.000000 -0.000001 -0.000000 5.659550 1.400642 -1.821270 5.659625 1.400730 -1.821289 0.000001 0.000000 -0.000000 0.000000 -0.000001 0.000000 -2.539211 9.629684 17.311032 -32.545209 22.359866 -59.859313 0.000044 -60.681921 0.000038 36.711959 13.114274 32.533902 3.376405 9.024332 0.850958 1.207879 -0.209481 -1.051009 0.000002 0.000003 -0.000004 1.138045 3.798599 -32.585583 0.000001 0.000005 -0.000025 0.000002 -0.000001 -0.000001 1.059978 3.748208 -26.561376 0.026331 0.602844 -5.001827 0.000000 -0.000001 -0.000002 1.443878 4.501176 -26.726086 0.026522 0.604947 -5.019332 0.000000 -0.000002 -0.000000 4.848794 9.455756 -32.890967 -0.018122 -4.056685 -0.491024 0.000001 -0.000002 -0.000000 -0.000001 0.000000 -0.000000 -0.000001 0.000000 -0.000000 -0.000002 0.000001 -0.000000 -0.000000 -0.000001 -0.000003 -0.000000 -0.000002 -0.000003 -0.000000 -0.000001 -0.000003 -0.000001 -0.000003 -0.000002 0.000542 -1.282058 -4.558337 -3.228770 -57.724128 48.823705 0.001144 102.311569 -0.001119 20.240120 -30.719196 -23.937008 8.921416 -7.771565 10.837994 2.627410 -2.847763 1.023319 0.000002 -0.000002 -0.000001 4.720073 -9.410417 32.285543 -0.000000 -0.001163 0.009543 0.000000 0.000002 -0.000000 1.854054 -8.493872 13.205843 0.127279 -1.326985 10.957419 -0.000002 0.000001 -0.000000 -0.374591 -8.745262 -2.972532 0.361514 -2.216898 18.521050 0.000002 0.000001 0.000000 -3.841049 -10.171414 -19.683034 1.160394 -3.850888 33.527626 0.000001 0.000000 -0.000003 -0.000000 -0.000000 0.000000 -0.000001 -0.000000 -0.000002 -0.000000 -0.000000 0.000001 0.000000 -0.000003 -0.000002 0.000001 -0.000002 -0.000002 0.000000 -0.000003 -0.000002 0.000001 -0.000002 -0.000001 0.000000 -0.000000 0.000000 0.000000 -0.000000 0.000000 0.000000 -0.000000 0.000000 0.000000 -0.000000 0.000000 0.000000 -0.000000 0.000000 0.000000 -0.000000 0.000000 0.000000 -0.000000 0.000000 0.000000 -0.000001 -0.000000 -0.000000 -0.000000 -0.000000 
1.507712 126.484619 1.977509 -13.970988 -6.416932 -1.849163 0.000000 0.000000 0.000000 -6.020410 -4.412675 10.604229 25.100423 9.242767 -4.959441 41.998444 -0.574649 -10.535429 0.000002 0.000001 0.000000 -0.000000 -0.000000 -0.000000 -78.843114 -0.742870 0.600681 92.423886 -3.252564 4.196259 9.906517 0.183557 6.380463 -0.000000 -0.000000 0.000001 0.000000 -0.000001 -0.000000 33.765587 -8.526722 2.226466 -8.469164 -1.646747 0.897228 -8.425441 -1.663043 1.197607 5.731976 1.424689 -1.768321 5.731984 1.424689 -1.768322 0.000001 -0.000001 -0.000000 5.732051 1.424694 -1.768324 5.731985 1.424677 -1.768319 -0.000000 -0.000000 0.000000 0.000001 -0.000001 -0.000000 -2.688569 10.186549 17.413811 -31.472289 22.305919 -61.692065 0.000008 -57.459458 0.000010 35.447292 12.844447 34.319358 3.348671 8.671148 0.650774 1.208185 -0.209906 -1.050904 0.000003 0.000004 0.000001 0.826761 3.332816 -33.777003 0.000009 0.000006 -0.000022 -0.000001 -0.000002 -0.000003 0.859756 3.341978 -27.438760 0.027997 0.621444 -5.156579 -0.000003 0.000001 -0.000001 1.252503 4.093417 -27.483879 0.027950 0.621011 -5.153089 0.000000 0.000003 0.000003 4.614744 8.947619 -33.683583 -0.018120 -4.056688 -0.491027 -0.000000 -0.000005 -0.000002 0.000000 0.000000 -0.000001 0.000000 0.000000 -0.000001 -0.000001 0.000000 -0.000001 -0.000001 0.000005 -0.000001 -0.000001 0.000005 -0.000001 -0.000001 0.000005 -0.000001 -0.000002 0.000004 -0.000001 -0.008929 -1.321991 -4.710628 -9.085184 -58.176819 42.482738 0.000513 104.046744 -0.000492 19.452276 -31.275429 -23.406944 7.361625 -5.231980 11.301143 3.878005 -6.435938 0.232396 0.000001 0.000001 -0.000000 4.581489 -9.129220 32.613040 -0.000002 -0.001021 0.008409 -0.000001 -0.000001 -0.000001 1.798417 -8.182346 13.387508 0.130723 -1.344596 11.104747 0.000001 -0.000000 -0.000000 -0.350483 -8.350883 -2.897219 0.371917 -2.247716 18.788257 -0.000002 0.000001 -0.000001 -3.668637 -9.633133 -19.679387 1.192252 -3.898430 33.998960 -0.000003 0.000003 -0.000002 -0.000001 -0.000001 0.000001 -0.000001 -0.000002 -0.000001 -0.000001 -0.000001 0.000002 -0.000000 -0.000002 -0.000001 0.000001 -0.000002 0.000000 -0.000000 -0.000002 -0.000001 0.000001 -0.000002 0.000002 -0.000000 -0.000001 -0.000000 -0.000000 -0.000001 -0.000000 -0.000000 -0.000001 -0.000000 -0.000000 -0.000001 -0.000000 -0.000000 -0.000001 -0.000000 -0.000000 -0.000001 -0.000000 -0.000000 -0.000001 -0.000000 -0.000001 0.000000 -0.000000 0.000000 0.000000 0.000000 
1.598582 126.177322 1.924639 -13.981230 -6.342213 -2.040097 -0.000001 0.000000 0.000000 -8.157704 -4.094899 11.110983 30.269059 8.921060 -5.030796 42.506091 -1.090733 -10.644851 0.000001 0.000001 -0.000000 -0.000000 -0.000000 -0.000000 -76.240463 -0.502025 0.957333 87.688926 -3.619192 4.624872 8.923524 0.116948 7.063989 -0.000000 -0.000001 -0.000001 0.000000 0.000000 -0.000002 33.437382 -8.270236 2.412385 -8.306558 -1.595853 0.787715 -8.266743 -1.621379 1.075586 5.821884 1.434009 -1.719557 5.821877 1.434014 -1.719556 -0.000000 0.000000 -0.000000 5.821874 1.434020 -1.719560 5.821871 1.434008 -1.719556 0.000002 -0.000001 -0.000000 -0.000000 0.000000 -0.000000 -2.849195 10.817329 17.422870 -30.055172 21.898077 -63.460920 -0.000015 -54.467996 -0.000018 33.610162 13.001310 36.242879 3.307802 8.240286 0.402383 1.208577 -0.210118 -1.050733 0.000002 0.000003 -0.000003 0.766424 3.271599 -35.026805 0.000007 0.000003 -0.000021 0.000002 0.000003 0.000001 0.792539 3.213088 -28.361281 0.029827 0.641611 -5.324606 0.000003 0.000003 -0.000002 1.149826 3.874784 -28.288043 0.029537 0.638446 -5.298156 0.000004 -0.000004 -0.000001 4.464450 8.575174 -34.541684 -0.018120 -4.056684 -0.491026 -0.000001 -0.000003 -0.000002 0.000002 0.000000 -0.000000 0.000002 0.000000 -0.000000 0.000001 0.000001 -0.000000 0.000001 0.000000 0.000002 0.000000 0.000000 0.000002 0.000001 0.000000 0.000002 -0.000001 -0.000001 0.000001 -0.002611 -1.135448 -5.019027 -15.507502 -57.940638 35.758188 0.000287 105.446632 -0.000271 18.528768 -31.683765 -23.109641 5.964014 -2.778571 12.003340 5.098548 -10.014968 -0.498794 0.000001 -0.000003 -0.000001 4.196394 -8.420023 33.297398 0.000006 -0.000664 0.005421 -0.000001 -0.000001 -0.000000 1.681706 -7.519696 13.849092 0.135421 -1.368305 11.303146 -0.000001 0.000000 0.000000 -0.282953 -7.657597 -2.568552 0.384560 -2.284501 19.107963 -0.000000 0.000001 -0.000001 -3.344247 -8.812675 -19.390156 1.226586 -3.948736 34.500764 -0.000002 0.000002 -0.000001 -0.000001 0.000002 0.000001 0.000000 0.000002 -0.000002 -0.000001 0.000001 0.000001 0.000000 -0.000001 -0.000001 0.000000 0.000000 -0.000003 0.000000 -0.000001 -0.000001 0.000001 -0.000000 -0.000001 -0.000000 0.000002 -0.000000 -0.000000 0.000002 -0.000000 -0.000000 0.000002 -0.000000 -0.000000 0.000002 -0.000000 -0.000000 0.000002 -0.000000 -0.000000 0.000002 -0.000000 -0.000000 0.000002 -0.000000 0.000001 -0.000001 -0.000000 -0.000001 0.000000 0.000000 
1.700598 125.922394 1.923042 -13.998539 -6.172592 -2.227570 -0.000001 0.000000 0.000000 -10.524619 -4.089797 11.612322 35.685525 8.527638 -5.062091 42.622996 -1.212374 -11.229721 -0.000001 -0.000001 0.000001 0.000001 0.000000 -0.000000 -72.864943 -0.249356 1.330902 82.467035 -4.112190 4.886609 7.781665 0.028959 7.695877 0.000000 -0.000000 0.000001 -0.000000 -0.000002 -0.000001 32.941937 -7.882853 2.649305 -8.037273 -1.556074 0.656862 -8.004569 -1.575039 0.921493 5.921651 1.429765 -1.679525 5.921667 1.429759 -1.679525 0.000001 -0.000000 0.000001 5.921731 1.429759 -1.679528 5.921652 1.429747 -1.679522 0.000001 0.000000 -0.000000 0.000001 -0.000000 0.000000 -3.010343 11.531402 17.280003 -28.179851 21.118055 -65.131721 0.000010 -52.034082 -0.000000 31.309871 13.476007 38.032570 3.253754 7.927489 0.254563 1.208525 -0.207689 -1.050560 0.000002 -0.000002 -0.000003 1.099504 3.753609 -35.802301 0.000008 0.000007 -0.000023 0.000000 -0.000003 -0.000002 0.977164 3.548963 -28.865704 0.030962 0.653594 -5.424306 0.000001 0.000002 0.000001 1.282168 4.107352 -28.640762 0.030329 0.646779 -5.367287 0.000003 -0.000002 -0.000001 4.613239 8.734758 -34.837721 -0.018119 -4.056688 -0.491025 0.000000 -0.000003 -0.000002 -0.000001 0.000001 0.000000 -0.000001 0.000001 0.000000 -0.000002 0.000001 0.000000 0.000000 0.000000 -0.000003 0.000000 -0.000000 -0.000004 0.000000 0.000000 -0.000003 -0.000001 -0.000001 -0.000005 0.021433 -0.689013 -5.568381 -21.748343 -57.054920 29.402079 -0.000002 106.446975 0.000004 17.583412 -31.796501 -22.978380 4.971742 -1.082816 12.657922 6.094209 -12.963239 -1.037024 -0.000001 -0.000001 0.000001 3.890093 -7.826796 34.203453 -0.000003 -0.000351 0.002873 -0.000001 0.000000 0.000000 1.618229 -7.038124 14.468608 0.138867 -1.385505 11.447193 -0.000002 -0.000000 -0.000001 -0.212274 -7.246827 -2.112283 0.391029 -2.303072 19.269581 0.000002 0.000001 0.000000 -3.136917 -8.417275 -18.987680 1.237942 -3.965177 34.665498 0.000002 0.000003 0.000002 0.000000 0.000002 0.000000 0.000002 0.000001 -0.000003 0.000000 0.000001 0.000000 -0.000000 0.000003 -0.000003 -0.000000 0.000003 -0.000001 -0.000000 0.000003 -0.000003 0.000000 0.000003 0.000000 0.000000 -0.000002 -0.000000 0.000000 -0.000002 -0.000000 0.000000 -0.000002 -0.000000 0.000000 -0.000002 -0.000000 0.000000 -0.000002 -0.000000 0.000000 -0.000002 -0.000000 0.000000 -0.000002 -0.000000 0.000000 0.000000 -0.000000 -0.000001 0.000000 0.000000 
